<svg width="41" height="41" viewBox="0 0 41 41" fill="none" xmlns="http://www.w3.org/2000/svg">
<mask id="mask0_6_230" style="mask-type:alpha" maskUnits="userSpaceOnUse" x="0" y="0" width="41" height="41">
<rect width="41" height="41" fill="#D9D9D9"/>
</mask>
<g mask="url(#mask0_6_230)">
<path d="M5.125 16.4854V12.8552L12.8552 5.125H16.4854L5.125 16.4854ZM5.125 8.11458V5.125H8.11458L5.125 8.11458ZM27.6323 10.976C27.3476 10.6628 27.0415 10.3568 26.7141 10.0578C26.3866 9.75885 26.0521 9.49549 25.7104 9.26771L29.8531 5.125H33.4833L27.6323 10.976ZM9.39583 25.5823L12.6844 22.2938C12.8837 22.6069 13.0901 22.8917 13.3036 23.1479C13.5172 23.4042 13.7521 23.6462 14.0083 23.874C13.2111 24.0733 12.4068 24.3224 11.5953 24.6214C10.7839 24.9203 10.0507 25.2406 9.39583 25.5823ZM29.8958 17.1688V17.0833C29.8958 16.5424 29.8531 16.0156 29.7677 15.5031C29.6823 14.9906 29.5542 14.4924 29.3833 14.0083L35.875 7.51667V11.1896L29.8958 17.1688ZM18.6208 7.85833L21.3969 5.125H25.0271L22.2938 7.85833C21.9806 7.80139 21.6816 7.75868 21.3969 7.73021C21.1122 7.70174 20.8132 7.6875 20.5 7.6875C20.1868 7.6875 19.8736 7.70174 19.5604 7.73021C19.2472 7.75868 18.934 7.80139 18.6208 7.85833ZM5.125 24.9844V21.3542L11.275 15.2042C11.2181 15.5174 11.1753 15.8306 11.1469 16.1438C11.1184 16.4569 11.1042 16.7701 11.1042 17.0833C11.1042 17.3965 11.1184 17.6955 11.1469 17.9802C11.1753 18.2649 11.2181 18.5497 11.275 18.8344L5.125 24.9844ZM35.4052 28.5292C35.1774 28.1875 34.9141 27.8601 34.6151 27.5469C34.3161 27.2337 33.9958 26.949 33.6542 26.6927L35.875 24.4719V28.1021L35.4052 28.5292ZM30.451 25.0271C30.2517 24.9417 30.0524 24.8634 29.8531 24.7922C29.6538 24.721 29.4545 24.6569 29.2552 24.6C28.999 24.5146 28.7498 24.4292 28.5078 24.3438C28.2658 24.2583 28.0167 24.1872 27.7604 24.1302L35.875 15.9729V19.6458L30.451 25.0271ZM20.5 23.9167C18.6208 23.9167 17.0122 23.2476 15.674 21.9094C14.3358 20.5712 13.6667 18.9625 13.6667 17.0833C13.6667 15.2042 14.3358 13.5955 15.674 12.2573C17.0122 10.9191 18.6208 10.25 20.5 10.25C22.3792 10.25 23.9878 10.9191 25.326 12.2573C26.6642 13.5955 27.3333 15.2042 27.3333 17.0833C27.3333 18.9625 26.6642 20.5712 25.326 21.9094C23.9878 23.2476 22.3792 23.9167 20.5 23.9167ZM6.83333 35.875V32.8427C6.83333 31.8747 7.07535 30.9778 7.55938 30.1521C8.0434 29.3264 8.7125 28.7 9.56667 28.2729C11.0188 27.5326 12.663 26.9062 14.4995 26.3937C16.3359 25.8813 18.3361 25.625 20.5 25.625C22.6639 25.625 24.6641 25.8813 26.5005 26.3937C28.337 26.9062 29.9813 27.5326 31.4333 28.2729C32.2875 28.7 32.9566 29.3264 33.4406 30.1521C33.9247 30.9778 34.1667 31.8747 34.1667 32.8427V35.875H6.83333Z" fill="white"/>
</g>
</svg>
