<svg width="153" height="137" viewBox="0 0 153 137" fill="none" xmlns="http://www.w3.org/2000/svg">
<g opacity="0.3">
<path d="M59.0959 80.5648C59.8282 64.5427 66.9344 40.8088 85.4112 37.6243C95.8146 36.5492 99.2733 51.6552 99.7307 59.4437C100.682 75.6466 90.9352 99.2146 72.5007 101.305C61.566 102.545 58.724 88.7028 59.0959 80.5648Z" stroke="white" stroke-width="2.93433" stroke-miterlimit="1.5" stroke-linecap="round" stroke-linejoin="round"/>
<path fill-rule="evenodd" clip-rule="evenodd" d="M91.4087 88.803C93.8616 85.4331 96.454 79.5165 96.9931 77.6847C98.0003 74.2622 98.827 71.7931 99.4431 67.2834C93.1972 65.4489 85.9599 63.9201 79.7802 61.8198C78.9287 66.4239 77.1796 75.1181 75.4412 79.4824C81.9215 82.8469 85.9457 85.9434 91.4087 88.803Z" stroke="white" stroke-width="2.93433" stroke-miterlimit="1.5" stroke-linecap="round" stroke-linejoin="round"/>
<path fill-rule="evenodd" clip-rule="evenodd" d="M79.7955 61.8139C83.7038 63.5916 81.6295 70.5048 80.0253 74.677C79.3234 76.5023 76.7548 80.061 75.1193 79.3537C70.0044 77.1417 75.3181 60.4157 79.7955 61.8139Z" stroke="white" stroke-width="2.93433" stroke-miterlimit="1.5" stroke-linecap="round" stroke-linejoin="round"/>
<path fill-rule="evenodd" clip-rule="evenodd" d="M83.9093 106.977C60.1894 110.603 57.0528 100.95 54.4231 85.9667C51.098 67.0202 63.4498 33.8175 85.3743 31.8065C99.3162 30.5276 103.017 46.0997 111.39 54.6793C123.324 66.9088 131.852 72.4474 146.105 81.4678C156.184 87.8465 150.31 106.752 139.583 111.813C133.755 114.563 126.653 111.375 120.845 110.28C108.656 107.98 96.3642 105.074 83.9093 106.977V106.977Z" stroke="white" stroke-width="2.93433" stroke-miterlimit="1.5" stroke-linecap="round" stroke-linejoin="round"/>
<path d="M115.767 109.307C123.868 104.946 129.653 93.0642 132.042 84.7595C133.129 80.9788 133.739 76.7818 132.885 72.8876" stroke="white" stroke-width="2.93433" stroke-miterlimit="1.5" stroke-linecap="round" stroke-linejoin="round"/>
<path d="M144.307 94.2217C143.792 97.0244 142.74 99.7883 140.908 101.994" stroke="white" stroke-width="2.93433" stroke-miterlimit="1.5" stroke-linecap="round" stroke-linejoin="round"/>
<path d="M138.356 90.8415C137.655 93.8345 136.313 96.5453 134.221 98.8081" stroke="white" stroke-width="2.93433" stroke-miterlimit="1.5" stroke-linecap="round" stroke-linejoin="round"/>
<path fill-rule="evenodd" clip-rule="evenodd" d="M112.378 108.653C115.846 109.33 123.049 110.588 128.006 112.019C127.932 112.286 127.762 112.702 127.675 112.92C124.732 120.33 120.792 128.731 113.741 133.124C109.736 135.62 105.336 136.125 101.01 134.129C99.0132 133.208 96.8489 131.19 97.0933 128.806C97.5559 124.289 103.775 119.735 106.504 116.384C108.415 114.036 110.878 111.293 112.378 108.653Z" stroke="white" stroke-width="2.93433" stroke-miterlimit="1.5" stroke-linecap="round" stroke-linejoin="round"/>
<path d="M109.734 108.179C112.22 108.559 115.2 109.178 118.02 109.728C116.857 112.029 115.254 114.879 113.494 116.788C112.74 117.606 111.939 118.459 110.826 118.76C110.384 118.88 109.899 118.888 109.444 118.85C108.095 118.736 104.708 118.333 104.578 116.485C104.494 115.285 105.434 114.068 106.11 113.164C107.33 111.532 108.481 109.845 109.612 108.15" stroke="white" stroke-width="2.93433" stroke-miterlimit="1.5" stroke-linecap="round" stroke-linejoin="round"/>
<path d="M51.2221 103.012C44.6081 104.851 37.9375 106.515 31.3872 108.589C33.3992 104.923 34.2925 100.016 35.5391 96.0678C27.5439 95.1851 19.3753 94.3821 11.462 93.0148C16.4239 88.4505 20.9078 82.361 24.9427 77.0496C17.3258 74.9332 9.83602 72.2878 2.38183 69.6704C9.97594 64.4743 17.5465 58.9975 25.4813 54.3544C20.2536 47.2254 15.3847 39.8056 9.87469 32.8942C19.0814 32.813 28.2913 32.2549 37.4977 32.2359C34.9102 24.6246 31.5728 17.195 28.7273 9.67751C38.9528 12.862 48.7942 17.1021 59.1333 19.9789C59.3066 13.8213 59.3129 7.66264 59.8326 1.52118C65.0325 6.62131 70.166 11.7535 75.6729 16.5266C77.0918 13.113 78.5386 9.72664 80.109 6.37835C82.0728 11.6212 83.5236 17.0366 84.9432 22.4475" stroke="white" stroke-width="2.93433" stroke-miterlimit="1.5" stroke-linecap="round" stroke-linejoin="round"/>
</g>
</svg>
