<svg width="64" height="64" viewBox="0 0 64 64" fill="none" xmlns="http://www.w3.org/2000/svg">
<rect width="64" height="64" rx="16" fill="#FFF4E4"/>
<mask id="mask0_40_2165" style="mask-type:alpha" maskUnits="userSpaceOnUse" x="16" y="15" width="32" height="32">
<rect x="16" y="15" width="32" height="32" fill="#7B23C1"/>
</mask>
<g mask="url(#mask0_40_2165)">
</g>
<path d="M31.6667 45.6667C31.0889 45.6667 30.5667 45.5278 30.1 45.25C29.6333 44.9722 29.2667 44.6 29 44.1333C28.2667 44.1333 27.6389 43.8722 27.1167 43.35C26.5944 42.8278 26.3333 42.2 26.3333 41.4667V36.7333C25.0222 35.8667 23.9722 34.7222 23.1833 33.3C22.3944 31.8778 22 30.3333 22 28.6667C22 25.9778 22.9389 23.6944 24.8167 21.8167C26.6944 19.9389 28.9778 19 31.6667 19C34.3556 19 36.6389 19.9389 38.5167 21.8167C40.3944 23.6944 41.3333 25.9778 41.3333 28.6667C41.3333 30.3778 40.9389 31.9333 40.15 33.3333C39.3611 34.7333 38.3111 35.8667 37 36.7333V41.4667C37 42.2 36.7389 42.8278 36.2167 43.35C35.6944 43.8722 35.0667 44.1333 34.3333 44.1333C34.0667 44.6 33.7 44.9722 33.2333 45.25C32.7667 45.5278 32.2444 45.6667 31.6667 45.6667ZM29 41.4667H34.3333V40.2667H29V41.4667ZM29 38.9333H34.3333V37.6667H29V38.9333ZM32.6667 35V31.4L35.6 28.4667L34.2 27.0667L31.6667 29.6L29.1333 27.0667L27.7333 28.4667L30.6667 31.4V35H32.6667Z" fill="#7B23C1"/>
</svg>
