<svg width="45" height="45" viewBox="0 0 45 45" fill="none" xmlns="http://www.w3.org/2000/svg">
<mask id="mask0_19_304" style="mask-type:alpha" maskUnits="userSpaceOnUse" x="0" y="0" width="45" height="45">
<rect width="45" height="45" fill="#FF7D8B"/>
</mask>
<g mask="url(#mask0_19_304)">
<path d="M23.0156 29.1094C25.2031 29.1094 27.0625 28.4063 28.5937 27C30.125 25.5938 30.8906 23.8906 30.8906 21.8906C30.8906 20.1094 30.3203 18.6016 29.1797 17.3672C28.0391 16.1328 26.6562 15.5156 25.0312 15.5156C23.5625 15.5156 22.3203 15.9844 21.3047 16.9219C20.2891 17.8594 19.7812 19.0156 19.7812 20.3906C19.7812 20.9844 19.8984 21.5625 20.1328 22.125C20.3672 22.6875 20.7031 23.2031 21.1406 23.6719L23.8125 21C23.7187 20.9375 23.6484 20.8594 23.6016 20.7656C23.5547 20.6719 23.5312 20.5625 23.5312 20.4375C23.5312 20.0938 23.6719 19.8203 23.9531 19.6172C24.2344 19.4141 24.5938 19.3125 25.0312 19.3125C25.6562 19.3125 26.1719 19.5703 26.5781 20.0859C26.9844 20.6016 27.1875 21.2188 27.1875 21.9375C27.1875 22.9062 26.7891 23.7266 25.9922 24.3984C25.1953 25.0703 24.2188 25.4062 23.0625 25.4062C21.5937 25.4062 20.3516 24.8125 19.3359 23.625C18.3203 22.4375 17.8125 20.9844 17.8125 19.2656C17.8125 18.3594 17.9844 17.4922 18.3281 16.6641C18.6719 15.8359 19.1562 15.1094 19.7812 14.4844L17.1094 11.8125C16.1094 12.7812 15.3438 13.9062 14.8125 15.1875C14.2812 16.4688 14.0156 17.8125 14.0156 19.2188C14.0156 21.9688 14.8906 24.3047 16.6406 26.2266C18.3906 28.1484 20.5156 29.1094 23.0156 29.1094ZM11.25 41.25V33.1875C9.46875 31.5625 8.08594 29.6641 7.10156 27.4922C6.11719 25.3203 5.625 23.0312 5.625 20.625C5.625 15.9375 7.26562 11.9531 10.5469 8.67188C13.8281 5.39062 17.8125 3.75 22.5 3.75C26.4062 3.75 29.8672 4.89844 32.8828 7.19531C35.8984 9.49219 37.8594 12.4844 38.7656 16.1719L41.2031 25.7812C41.3594 26.375 41.25 26.9141 40.875 27.3984C40.5 27.8828 40 28.125 39.375 28.125H35.625V33.75C35.625 34.7812 35.2578 35.6641 34.5234 36.3984C33.7891 37.1328 32.9062 37.5 31.875 37.5H28.125V41.25H11.25Z" fill="#FF7D8B"/>
</g>
</svg>
