<svg width="45" height="41" viewBox="0 0 45 41" fill="none" xmlns="http://www.w3.org/2000/svg">
<g opacity="0.3">
<path d="M17.3758 23.8229C17.5872 19.1967 19.6391 12.3438 24.974 11.4244C27.9779 11.1139 28.9765 15.4756 29.1086 17.7244C29.3833 22.4028 26.569 29.2078 21.2462 29.8114C18.089 30.1695 17.2684 26.1726 17.3758 23.8229Z" stroke="white" stroke-miterlimit="1.5" stroke-linecap="round" stroke-linejoin="round"/>
<path fill-rule="evenodd" clip-rule="evenodd" d="M26.7055 26.2016C27.4138 25.2286 28.1623 23.5202 28.318 22.9913C28.6088 22.0031 28.8475 21.2902 29.0254 19.9881C27.222 19.4584 25.1323 19.0169 23.348 18.4105C23.1021 19.7399 22.5971 22.2502 22.0951 23.5104C23.9662 24.4818 25.1282 25.3759 26.7055 26.2016Z" stroke="white" stroke-miterlimit="1.5" stroke-linecap="round" stroke-linejoin="round"/>
<path fill-rule="evenodd" clip-rule="evenodd" d="M23.3523 18.4088C24.4807 18.9221 23.8818 20.9182 23.4186 22.1229C23.2159 22.6499 22.4743 23.6775 22.0021 23.4732C20.5252 22.8345 22.0594 18.0051 23.3523 18.4088Z" stroke="white" stroke-miterlimit="1.5" stroke-linecap="round" stroke-linejoin="round"/>
<path fill-rule="evenodd" clip-rule="evenodd" d="M24.5402 31.4492C17.6913 32.4962 16.7857 29.7088 16.0264 25.3826C15.0663 19.9121 18.6327 10.3252 24.9632 9.74456C28.9887 9.37527 30.0574 13.8715 32.4749 16.3488C35.9208 19.8799 38.3831 21.4791 42.4983 24.0836C45.4085 25.9254 43.7125 31.3842 40.6153 32.8454C38.9324 33.6394 36.8818 32.719 35.205 32.4027C31.6855 31.7388 28.1363 30.8996 24.5402 31.4492V31.4492Z" stroke="white" stroke-miterlimit="1.5" stroke-linecap="round" stroke-linejoin="round"/>
<path d="M33.7379 32.1219C36.0769 30.8626 37.7474 27.4319 38.437 25.0341C38.751 23.9425 38.9273 22.7306 38.6806 21.6062" stroke="white" stroke-miterlimit="1.5" stroke-linecap="round" stroke-linejoin="round"/>
<path d="M41.9785 27.7662C41.83 28.5754 41.5261 29.3734 40.9971 30.0102" stroke="white" stroke-miterlimit="1.5" stroke-linecap="round" stroke-linejoin="round"/>
<path d="M40.2617 26.7902C40.0595 27.6543 39.6719 28.4371 39.0678 29.0904" stroke="white" stroke-miterlimit="1.5" stroke-linecap="round" stroke-linejoin="round"/>
<path fill-rule="evenodd" clip-rule="evenodd" d="M32.761 31.9331C33.7625 32.1284 35.8422 32.4918 37.2734 32.905C37.2519 32.982 37.2029 33.1021 37.178 33.1649C36.3282 35.3045 35.1906 37.7303 33.1546 38.9988C31.9981 39.7194 30.7278 39.8653 29.4786 39.2888C28.9021 39.0229 28.2772 38.4402 28.3477 37.7518C28.4813 36.4477 30.277 35.1329 31.065 34.1651C31.6168 33.4873 32.328 32.6952 32.761 31.9331Z" stroke="white" stroke-miterlimit="1.5" stroke-linecap="round" stroke-linejoin="round"/>
<path d="M31.9964 31.7962C32.714 31.9059 33.5745 32.0846 34.3887 32.2434C34.0529 32.9077 33.5903 33.7307 33.0821 34.2819C32.8642 34.5182 32.6329 34.7643 32.3116 34.8513C32.1839 34.8859 32.044 34.8882 31.9127 34.8772C31.5231 34.8444 30.5452 34.7281 30.5077 34.1945C30.4834 33.8479 30.7547 33.4966 30.9499 33.2356C31.3023 32.7642 31.6346 32.2773 31.961 31.7877" stroke="white" stroke-miterlimit="1.5" stroke-linecap="round" stroke-linejoin="round"/>
<path d="M15.1013 30.3042C13.1916 30.8351 11.2656 31.3157 9.37424 31.9144C9.95518 30.8559 10.2131 29.439 10.5731 28.2992C8.26455 28.0443 5.90596 27.8124 3.62108 27.4177C5.05379 26.0998 6.34846 24.3415 7.51349 22.8079C5.31418 22.1968 3.15161 21.433 0.999304 20.6773C3.19201 19.1769 5.37793 17.5956 7.669 16.2549C6.15955 14.1965 4.75374 12.0542 3.16278 10.0586C5.82111 10.0351 8.48036 9.87399 11.1386 9.86851C10.3915 7.67083 9.42785 5.52562 8.60623 3.35504C11.5587 4.27452 14.4003 5.4988 17.3856 6.32945C17.4356 4.55151 17.4375 2.77327 17.5875 0.999999C19.0889 2.4726 20.5712 3.95445 22.1612 5.33265C22.5709 4.34699 22.9886 3.36923 23.4421 2.40245C24.0091 3.91626 24.428 5.4799 24.8379 7.04223" stroke="white" stroke-miterlimit="1.5" stroke-linecap="round" stroke-linejoin="round"/>
</g>
</svg>
