<svg width="45" height="45" viewBox="0 0 45 45" fill="none" xmlns="http://www.w3.org/2000/svg">
<mask id="mask0_19_295" style="mask-type:alpha" maskUnits="userSpaceOnUse" x="0" y="0" width="45" height="45">
<rect width="45" height="45" fill="#EFA42C"/>
</mask>
<g mask="url(#mask0_19_295)">
<path d="M22.5 16.875C20.6875 16.875 19.1406 16.2344 17.8594 14.9531C16.5781 13.6719 15.9375 12.125 15.9375 10.3125C15.9375 8.5 16.5781 6.95312 17.8594 5.67188C19.1406 4.39062 20.6875 3.75 22.5 3.75C24.3125 3.75 25.8594 4.39062 27.1406 5.67188C28.4219 6.95312 29.0625 8.5 29.0625 10.3125C29.0625 12.125 28.4219 13.6719 27.1406 14.9531C25.8594 16.2344 24.3125 16.875 22.5 16.875ZM22.5 41.25L11.25 30C10.625 29.375 10.1562 28.6719 9.84375 27.8906C9.53125 27.1094 9.375 26.25 9.375 25.3125C9.375 23.4688 10.0078 21.9141 11.2734 20.6484C12.5391 19.3828 14.0938 18.75 15.9375 18.75C16.8438 18.75 17.6797 18.9219 18.4453 19.2656C19.2109 19.6094 19.9063 20.0938 20.5313 20.7188L22.5 22.6875L24.4688 20.7188C25.0938 20.0938 25.7891 19.6094 26.5547 19.2656C27.3203 18.9219 28.1562 18.75 29.0625 18.75C30.9062 18.75 32.4609 19.3828 33.7266 20.6484C34.9922 21.9141 35.625 23.4688 35.625 25.3125C35.625 26.25 35.4688 27.1094 35.1562 27.8906C34.8438 28.6719 34.375 29.375 33.75 30L22.5 41.25Z" fill="#EFA42C"/>
</g>
</svg>
