<svg width="45" height="45" viewBox="0 0 45 45" fill="none" xmlns="http://www.w3.org/2000/svg">
<mask id="mask0_19_286" style="mask-type:alpha" maskUnits="userSpaceOnUse" x="0" y="0" width="45" height="45">
<rect width="45" height="45" fill="#1ABEE5"/>
</mask>
<g mask="url(#mask0_19_286)">
<path d="M7.5 39.375V31.4062L32.2031 6.75C32.5781 6.375 33 6.09375 33.4688 5.90625C33.9375 5.71875 34.4062 5.625 34.875 5.625C35.375 5.625 35.8516 5.71875 36.3047 5.90625C36.7578 6.09375 37.1562 6.375 37.5 6.75L40.125 9.375C40.5 9.71875 40.7812 10.1172 40.9688 10.5703C41.1562 11.0234 41.25 11.5 41.25 12C41.25 12.4688 41.1562 12.9375 40.9688 13.4062C40.7812 13.875 40.5 14.2969 40.125 14.6719L15.4688 39.375H7.5ZM34.9688 14.5781L37.5 12.0469L34.8281 9.375L32.2969 11.9063L34.9688 14.5781ZM26.25 39.375C28.5625 39.375 30.7031 38.7969 32.6719 37.6406C34.6406 36.4844 35.625 34.875 35.625 32.8125C35.625 31.6875 35.3281 30.7188 34.7344 29.9062C34.1406 29.0938 33.3438 28.3906 32.3438 27.7969L29.5781 30.5625C30.2969 30.875 30.8594 31.2188 31.2656 31.5938C31.6719 31.9688 31.875 32.375 31.875 32.8125C31.875 33.5312 31.3047 34.1797 30.1641 34.7578C29.0234 35.3359 27.7188 35.625 26.25 35.625C25.7188 35.625 25.2734 35.8047 24.9141 36.1641C24.5547 36.5234 24.375 36.9688 24.375 37.5C24.375 38.0312 24.5547 38.4766 24.9141 38.8359C25.2734 39.1953 25.7188 39.375 26.25 39.375ZM8.57812 25.0312L11.3906 22.2188C10.7656 21.9688 10.2734 21.7109 9.91406 21.4453C9.55469 21.1797 9.375 20.9062 9.375 20.625C9.375 20.25 9.65625 19.875 10.2188 19.5C10.7812 19.125 11.9688 18.5469 13.7812 17.7656C16.5312 16.5781 18.3594 15.5 19.2656 14.5312C20.1719 13.5625 20.625 12.4688 20.625 11.25C20.625 9.53125 19.9375 8.16406 18.5625 7.14844C17.1875 6.13281 15.375 5.625 13.125 5.625C11.7188 5.625 10.4609 5.875 9.35156 6.375C8.24219 6.875 7.39062 7.48438 6.79688 8.20312C6.45312 8.60938 6.3125 9.0625 6.375 9.5625C6.4375 10.0625 6.67188 10.4688 7.07813 10.7812C7.48438 11.125 7.9375 11.2656 8.4375 11.2031C8.9375 11.1406 9.35938 10.9375 9.70312 10.5938C10.1406 10.1562 10.625 9.84375 11.1562 9.65625C11.6875 9.46875 12.3438 9.375 13.125 9.375C14.4062 9.375 15.3516 9.5625 15.9609 9.9375C16.5703 10.3125 16.875 10.75 16.875 11.25C16.875 11.6875 16.6016 12.0859 16.0547 12.4453C15.5078 12.8047 14.25 13.4375 12.2812 14.3438C9.78125 15.4375 8.04688 16.4297 7.07813 17.3203C6.10938 18.2109 5.625 19.3125 5.625 20.625C5.625 21.625 5.89063 22.4766 6.42188 23.1797C6.95312 23.8828 7.67188 24.5 8.57812 25.0312Z" fill="#1ABEE5"/>
</g>
</svg>
