<svg width="1920" height="773" viewBox="0 0 1920 773" fill="none" xmlns="http://www.w3.org/2000/svg">
<path d="M280 388.5C280 480.455 205.455 555 113.5 555C21.5446 555 -53 480.455 -53 388.5C-53 296.545 21.5446 222 113.5 222C205.455 222 280 296.545 280 388.5Z" fill="white"/>
<path d="M664 424.5C664 568.37 547.37 685 403.5 685C259.63 685 143 568.37 143 424.5C143 280.63 259.63 164 403.5 164C547.37 164 664 280.63 664 424.5Z" fill="white"/>
<path d="M1005 530.5C1005 674.37 888.37 791 744.5 791C600.63 791 484 674.37 484 530.5C484 386.63 600.63 270 744.5 270C888.37 270 1005 386.63 1005 530.5Z" fill="white"/>
<path d="M1304 407.5C1304 551.37 1187.37 668 1043.5 668C899.63 668 783 551.37 783 407.5C783 263.63 899.63 147 1043.5 147C1187.37 147 1304 263.63 1304 407.5Z" fill="white"/>
<path d="M1534 362.5C1534 458.874 1455.87 537 1359.5 537C1263.13 537 1185 458.874 1185 362.5C1185 266.126 1263.13 188 1359.5 188C1455.87 188 1534 266.126 1534 362.5Z" fill="white"/>
<path d="M1649 362.5C1649 431.259 1593.26 487 1524.5 487C1455.74 487 1400 431.259 1400 362.5C1400 293.741 1455.74 238 1524.5 238C1593.26 238 1649 293.741 1649 362.5Z" fill="white"/>
<path d="M1811 260.5C1811 329.259 1755.26 385 1686.5 385C1617.74 385 1562 329.259 1562 260.5C1562 191.741 1617.74 136 1686.5 136C1755.26 136 1811 191.741 1811 260.5Z" fill="white"/>
<path d="M2124 222C2124 334.666 2032.67 426 1920 426C1807.33 426 1716 334.666 1716 222C1716 109.334 1807.33 18 1920 18C2032.67 18 2124 109.334 2124 222Z" fill="white"/>
<path d="M115 204C115 316.666 23.6661 408 -89 408C-201.666 408 -293 316.666 -293 204C-293 91.3339 -201.666 0 -89 0C23.6661 0 115 91.3339 115 204Z" fill="white"/>
</svg>
