<svg width="4510" height="791" viewBox="0 0 4510 791" fill="none" xmlns="http://www.w3.org/2000/svg">
<path d="M2666 388.5C2666 480.455 2591.46 555 2499.5 555C2407.54 555 2333 480.455 2333 388.5C2333 296.545 2407.54 222 2499.5 222C2591.46 222 2666 296.545 2666 388.5Z" fill="white"/>
<path d="M3050 424.5C3050 568.37 2933.37 685 2789.5 685C2645.63 685 2529 568.37 2529 424.5C2529 280.63 2645.63 164 2789.5 164C2933.37 164 3050 280.63 3050 424.5Z" fill="white"/>
<path d="M3391 530.5C3391 674.37 3274.37 791 3130.5 791C2986.63 791 2870 674.37 2870 530.5C2870 386.63 2986.63 270 3130.5 270C3274.37 270 3391 386.63 3391 530.5Z" fill="white"/>
<path d="M3690 407.5C3690 551.37 3573.37 668 3429.5 668C3285.63 668 3169 551.37 3169 407.5C3169 263.63 3285.63 147 3429.5 147C3573.37 147 3690 263.63 3690 407.5Z" fill="white"/>
<path d="M3920 362.5C3920 458.874 3841.87 537 3745.5 537C3649.13 537 3571 458.874 3571 362.5C3571 266.126 3649.13 188 3745.5 188C3841.87 188 3920 266.126 3920 362.5Z" fill="white"/>
<path d="M4035 362.5C4035 431.259 3979.26 487 3910.5 487C3841.74 487 3786 431.259 3786 362.5C3786 293.741 3841.74 238 3910.5 238C3979.26 238 4035 293.741 4035 362.5Z" fill="white"/>
<path d="M4197 260.5C4197 329.259 4141.26 385 4072.5 385C4003.74 385 3948 329.259 3948 260.5C3948 191.741 4003.74 136 4072.5 136C4141.26 136 4197 191.741 4197 260.5Z" fill="white"/>
<path d="M4510 222C4510 334.666 4418.67 426 4306 426C4193.33 426 4102 334.666 4102 222C4102 109.334 4193.33 18 4306 18C4418.67 18 4510 109.334 4510 222Z" fill="white"/>
<path d="M2501 204C2501 316.666 2409.67 408 2297 408C2184.33 408 2093 316.666 2093 204C2093 91.3339 2184.33 0 2297 0C2409.67 0 2501 91.3339 2501 204Z" fill="white"/>
<path d="M573 388.5C573 480.455 498.455 555 406.5 555C314.545 555 240 480.455 240 388.5C240 296.545 314.545 222 406.5 222C498.455 222 573 296.545 573 388.5Z" fill="white"/>
<path d="M957 424.5C957 568.37 840.37 685 696.5 685C552.63 685 436 568.37 436 424.5C436 280.63 552.63 164 696.5 164C840.37 164 957 280.63 957 424.5Z" fill="white"/>
<path d="M1298 530.5C1298 674.37 1181.37 791 1037.5 791C893.63 791 777 674.37 777 530.5C777 386.63 893.63 270 1037.5 270C1181.37 270 1298 386.63 1298 530.5Z" fill="white"/>
<path d="M1597 407.5C1597 551.37 1480.37 668 1336.5 668C1192.63 668 1076 551.37 1076 407.5C1076 263.63 1192.63 147 1336.5 147C1480.37 147 1597 263.63 1597 407.5Z" fill="white"/>
<path d="M1827 362.5C1827 458.874 1748.87 537 1652.5 537C1556.13 537 1478 458.874 1478 362.5C1478 266.126 1556.13 188 1652.5 188C1748.87 188 1827 266.126 1827 362.5Z" fill="white"/>
<path d="M1942 362.5C1942 431.259 1886.26 487 1817.5 487C1748.74 487 1693 431.259 1693 362.5C1693 293.741 1748.74 238 1817.5 238C1886.26 238 1942 293.741 1942 362.5Z" fill="white"/>
<path d="M2104 260.5C2104 329.259 2048.26 385 1979.5 385C1910.74 385 1855 329.259 1855 260.5C1855 191.741 1910.74 136 1979.5 136C2048.26 136 2104 191.741 2104 260.5Z" fill="white"/>
<path d="M2417 222C2417 334.666 2325.67 426 2213 426C2100.33 426 2009 334.666 2009 222C2009 109.334 2100.33 18 2213 18C2325.67 18 2417 109.334 2417 222Z" fill="white"/>
<path d="M408 204C408 316.666 316.666 408 204 408C91.3339 408 0 316.666 0 204C0 91.3339 91.3339 0 204 0C316.666 0 408 91.3339 408 204Z" fill="white"/>
</svg>
